<svg width="80" height="98" viewBox="0 0 80 98" fill="none" xmlns="http://www.w3.org/2000/svg">
<path d="M0.5 22C0.5 20.067 2.067 18.5 4 18.5H76C77.933 18.5 79.5 20.067 79.5 22V94C79.5 95.933 77.933 97.5 76 97.5H4C2.067 97.5 0.5 95.933 0.5 94V22Z" fill="url(#paint0_linear_1_12)" stroke="#354971"/>
<rect y="57" width="16" height="1" fill="#354971"/>
<rect x="64" y="57" width="16" height="1" fill="#354971"/>
<path d="M26.2969 73.3906C33.3672 73.3906 37.6641 68.1562 37.6641 58.8594C37.6641 49.6211 33.3477 44.3281 26.2969 44.3281C19.2461 44.3281 14.9297 49.6211 14.9297 58.8594C14.9297 68.1172 19.207 73.3906 26.2969 73.3906ZM20.9453 58.8594C20.9453 52.3945 23.0352 49.1523 26.2969 49.1328C29.5586 49.1523 31.668 52.3945 31.6484 58.8594C31.668 65.3828 29.5781 68.5469 26.2969 68.5469C23.0156 68.5469 20.9062 65.3828 20.9453 58.8594ZM52.7031 73.3906C59.7734 73.3906 64.0703 68.1562 64.0703 58.8594C64.0703 49.6211 59.7539 44.3281 52.7031 44.3281C45.6523 44.3281 41.3359 49.6211 41.3359 58.8594C41.3359 68.1172 45.6133 73.3906 52.7031 73.3906ZM47.3516 58.8594C47.3516 52.3945 49.4414 49.1523 52.7031 49.1328C55.9648 49.1523 58.0742 52.3945 58.0547 58.8594C58.0742 65.3828 55.9844 68.5469 52.7031 68.5469C49.4219 68.5469 47.3125 65.3828 47.3516 58.8594Z" fill="white"/>
<path d="M28.8262 11H30.584V7.48438H34.2637V11H36.0332V2.51562H34.2637V6.03125H30.584V2.51562H28.8262V11ZM37.4629 11H39.2207V7.98828H40.5625L42.1855 11H44.1309L42.3262 7.70117C43.293 7.28516 43.8262 6.44141 43.8262 5.28125C43.8262 3.59961 42.7188 2.51562 40.791 2.51562H37.4629V11ZM39.2207 6.55859V3.95703H40.4629C41.5059 3.96289 42.0156 4.42578 42.0098 5.28125C42.0156 6.13086 41.5059 6.55859 40.4629 6.55859H39.2207ZM49.6504 4.94141H51.3379C51.3145 3.44141 50.0781 2.39844 48.1973 2.39844C46.3398 2.39844 44.9805 3.42383 44.9863 4.96484C44.9863 6.20703 45.8652 6.92188 47.2949 7.27344L48.2207 7.49609C49.1465 7.72461 49.6738 7.99414 49.6738 8.57422C49.6738 9.20703 49.0762 9.64062 48.1504 9.64062C47.2129 9.64062 46.5332 9.20703 46.4746 8.35156H44.7637C44.8164 10.1738 46.123 11.123 48.1738 11.1172C50.2422 11.123 51.4492 10.127 51.4551 8.57422C51.4492 7.16211 50.3652 6.42383 48.9121 6.08984L48.1504 5.90234C47.418 5.73828 46.7852 5.46289 46.791 4.84766C46.7969 4.28516 47.2949 3.875 48.1855 3.875C49.0469 3.875 49.5801 4.26758 49.6504 4.94141Z" fill="#A5B6EE"/>
<defs>
<linearGradient id="paint0_linear_1_12" x1="80" y1="98" x2="12.7778" y2="32.4444" gradientUnits="userSpaceOnUse">
<stop stop-color="#304577"/>
<stop offset="1" stop-color="#4C65A0"/>
</linearGradient>
</defs>
</svg>
