<svg width="80" height="98" viewBox="0 0 80 98" fill="none" xmlns="http://www.w3.org/2000/svg">
<path d="M0.5 22C0.5 20.067 2.067 18.5 4 18.5H76C77.933 18.5 79.5 20.067 79.5 22V94C79.5 95.933 77.933 97.5 76 97.5H4C2.067 97.5 0.5 95.933 0.5 94V22Z" fill="url(#paint0_linear_1_13)" stroke="#354971"/>
<rect y="57" width="16" height="1" fill="#354971"/>
<rect x="64" y="57" width="16" height="1" fill="#354971"/>
<path d="M26.2969 73.3906C33.3672 73.3906 37.6641 68.1562 37.6641 58.8594C37.6641 49.6211 33.3477 44.3281 26.2969 44.3281C19.2461 44.3281 14.9297 49.6211 14.9297 58.8594C14.9297 68.1172 19.207 73.3906 26.2969 73.3906ZM20.9453 58.8594C20.9453 52.3945 23.0352 49.1523 26.2969 49.1328C29.5586 49.1523 31.668 52.3945 31.6484 58.8594C31.668 65.3828 29.5781 68.5469 26.2969 68.5469C23.0156 68.5469 20.9062 65.3828 20.9453 58.8594ZM52.7031 73.3906C59.7734 73.3906 64.0703 68.1562 64.0703 58.8594C64.0703 49.6211 59.7539 44.3281 52.7031 44.3281C45.6523 44.3281 41.3359 49.6211 41.3359 58.8594C41.3359 68.1172 45.6133 73.3906 52.7031 73.3906ZM47.3516 58.8594C47.3516 52.3945 49.4414 49.1523 52.7031 49.1328C55.9648 49.1523 58.0742 52.3945 58.0547 58.8594C58.0742 65.3828 55.9844 68.5469 52.7031 68.5469C49.4219 68.5469 47.3125 65.3828 47.3516 58.8594Z" fill="white"/>
<path d="M30.0703 2.51562V11H31.7812V5.42188H31.8516L34.0664 10.9648H35.2383L37.4531 5.44531H37.5234V11H39.2344V2.51562H37.0547L34.6992 8.26953H34.6055L32.25 2.51562H30.0703ZM42.4219 2.51562H40.6641V11H42.4219V2.51562ZM50.9297 2.51562H49.1836V7.90625H49.1016L45.3984 2.51562H43.8516V11H45.6094V5.60938H45.6797L49.4062 11H50.9297V2.51562Z" fill="#A5B6EE"/>
<defs>
<linearGradient id="paint0_linear_1_13" x1="80" y1="98" x2="12.7778" y2="32.4444" gradientUnits="userSpaceOnUse">
<stop stop-color="#304577"/>
<stop offset="1" stop-color="#4C65A0"/>
</linearGradient>
</defs>
</svg>
