<svg width="80" height="98" viewBox="0 0 80 98" fill="none" xmlns="http://www.w3.org/2000/svg">
<path d="M0.5 22C0.5 20.067 2.067 18.5 4 18.5H76C77.933 18.5 79.5 20.067 79.5 22V94C79.5 95.933 77.933 97.5 76 97.5H4C2.067 97.5 0.5 95.933 0.5 94V22Z" fill="url(#paint0_linear_1_19)" stroke="#354971"/>
<rect y="57" width="16" height="1" fill="#354971"/>
<rect x="64" y="57" width="16" height="1" fill="#354971"/>
<path d="M26.2969 73.3906C33.3672 73.3906 37.6641 68.1562 37.6641 58.8594C37.6641 49.6211 33.3477 44.3281 26.2969 44.3281C19.2461 44.3281 14.9297 49.6211 14.9297 58.8594C14.9297 68.1172 19.207 73.3906 26.2969 73.3906ZM20.9453 58.8594C20.9453 52.3945 23.0352 49.1523 26.2969 49.1328C29.5586 49.1523 31.668 52.3945 31.6484 58.8594C31.668 65.3828 29.5781 68.5469 26.2969 68.5469C23.0156 68.5469 20.9062 65.3828 20.9453 58.8594ZM52.7031 73.3906C59.7734 73.3906 64.0703 68.1562 64.0703 58.8594C64.0703 49.6211 59.7539 44.3281 52.7031 44.3281C45.6523 44.3281 41.3359 49.6211 41.3359 58.8594C41.3359 68.1172 45.6133 73.3906 52.7031 73.3906ZM47.3516 58.8594C47.3516 52.3945 49.4414 49.1523 52.7031 49.1328C55.9648 49.1523 58.0742 52.3945 58.0547 58.8594C58.0742 65.3828 55.9844 68.5469 52.7031 68.5469C49.4219 68.5469 47.3125 65.3828 47.3516 58.8594Z" fill="white"/>
<path d="M33.666 4.94141H35.3535C35.3301 3.44141 34.0938 2.39844 32.2129 2.39844C30.3555 2.39844 28.9961 3.42383 29.002 4.96484C29.002 6.20703 29.8809 6.92188 31.3105 7.27344L32.2363 7.49609C33.1621 7.72461 33.6895 7.99414 33.6895 8.57422C33.6895 9.20703 33.0918 9.64062 32.166 9.64062C31.2285 9.64062 30.5488 9.20703 30.4902 8.35156H28.7793C28.832 10.1738 30.1387 11.123 32.1895 11.1172C34.2578 11.123 35.4648 10.127 35.4707 8.57422C35.4648 7.16211 34.3809 6.42383 32.9277 6.08984L32.166 5.90234C31.4336 5.73828 30.8008 5.46289 30.8066 4.84766C30.8125 4.28516 31.3105 3.875 32.2012 3.875C33.0625 3.875 33.5957 4.26758 33.666 4.94141ZM36.6191 11H42.3262V9.54688H38.377V7.48438H42.0215V6.03125H38.377V3.96875H42.3145V2.51562H36.6191V11ZM49.3574 5.46875H51.1387C50.9043 3.51758 49.4277 2.39844 47.4707 2.39844C45.2324 2.39844 43.5215 3.98633 43.5215 6.75781C43.5215 9.51758 45.2031 11.1172 47.4707 11.1172C49.627 11.1172 50.9453 9.6875 51.1387 8.11719L49.3574 8.10547C49.1875 9.02539 48.4609 9.55273 47.4941 9.55859C46.1992 9.55273 45.3145 8.58594 45.3145 6.75781C45.3145 4.9707 46.1875 3.96289 47.5059 3.95703C48.4961 3.96289 49.2168 4.53125 49.3574 5.46875Z" fill="#A5B6EE"/>
<defs>
<linearGradient id="paint0_linear_1_19" x1="80" y1="98" x2="12.7778" y2="32.4444" gradientUnits="userSpaceOnUse">
<stop stop-color="#304577"/>
<stop offset="1" stop-color="#4C65A0"/>
</linearGradient>
</defs>
</svg>
