<svg width="112" height="48" viewBox="0 0 112 48" fill="none" xmlns="http://www.w3.org/2000/svg">
<rect width="112" height="48" rx="24" fill="#15C2B8"/>
<rect x="25" y="17" width="4" height="15" rx="1" fill="white"/>
<rect x="33" y="17" width="4" height="15" rx="1" fill="white"/>
<path d="M44.834 30H46.8848V26.7734H48.6621C50.9453 26.7734 52.2578 25.413 52.2578 23.4375C52.2578 21.4892 50.9658 20.1015 48.7168 20.1015H44.834V30ZM46.8848 25.1191V21.7832H48.334C49.5508 21.79 50.1455 22.4531 50.1387 23.4375C50.1455 24.4355 49.5508 25.1191 48.334 25.1191H46.8848ZM54.0625 30L54.8076 27.7167H58.3896L59.1348 30H61.3359L57.918 20.1015H55.2793L51.8477 30H54.0625ZM55.3271 26.1171L56.5645 22.33H56.6328L57.8701 26.1171H55.3271ZM68.582 20.1015V26.3632C68.5889 27.5048 67.7822 28.3251 66.5449 28.332C65.3213 28.3251 64.5146 27.5048 64.5078 26.3632V20.1015H62.457V26.5273C62.457 28.6943 64.084 30.1435 66.5449 30.1367C68.999 30.1435 70.6465 28.6943 70.6465 26.5273V20.1015H68.582ZM77.6875 22.9316H79.6562C79.6289 21.1816 78.1865 19.9648 75.9922 19.9648C73.8252 19.9648 72.2393 21.1611 72.2461 22.9589C72.2461 24.4082 73.2715 25.2421 74.9395 25.6523L76.0195 25.9121C77.0996 26.1787 77.7148 26.4931 77.7148 27.1699C77.7148 27.9082 77.0176 28.414 75.9375 28.414C74.8438 28.414 74.0508 27.9082 73.9824 26.9101H71.9863C72.0479 29.0361 73.5723 30.1435 75.9648 30.1367C78.3779 30.1435 79.7861 28.9814 79.793 27.1699C79.7861 25.5224 78.5215 24.6611 76.8262 24.2714L75.9375 24.0527C75.083 23.8613 74.3447 23.54 74.3516 22.8222C74.3584 22.166 74.9395 21.6875 75.9785 21.6875C76.9834 21.6875 77.6055 22.1455 77.6875 22.9316ZM81.1328 30H87.791V28.3046H83.1836V25.8984H87.4355V24.2031H83.1836V21.7968H87.7773V20.1015H81.1328V30Z" fill="white"/>
</svg>
