<svg width="112" height="48" viewBox="0 0 112 48" fill="none" xmlns="http://www.w3.org/2000/svg">
<rect width="112" height="48" rx="24" fill="#FB7099"/>
<g clip-path="url(#clip0_6_1694)">
<path d="M25.24 17.5V21.921M25.24 21.921H29.661M25.24 21.921L27.1855 20.1752C28.2031 19.1594 29.5233 18.5018 30.9471 18.3015C32.3709 18.1012 33.8213 18.369 35.0797 19.0646C36.3381 19.7602 37.3363 20.8459 37.924 22.1581C38.5116 23.4703 38.6569 24.9379 38.3378 26.3399C38.0188 27.7418 37.2527 29.0021 36.1551 29.9308C35.0574 30.8595 33.6877 31.4064 32.2522 31.489C30.8167 31.5716 29.3932 31.1855 28.1963 30.3888C26.9993 29.5921 26.0937 28.4281 25.6159 27.072" stroke="white" stroke-width="2" stroke-linecap="round" stroke-linejoin="round"/>
</g>
<path d="M45.334 30H47.3848V26.4863H48.9502L50.8438 30H53.1133L51.0078 26.1513C52.1357 25.666 52.7578 24.6816 52.7578 23.3281C52.7578 21.3662 51.4658 20.1015 49.2168 20.1015H45.334V30ZM47.3848 24.8183V21.7832H48.834C50.0508 21.79 50.6455 22.33 50.6387 23.3281C50.6455 24.3193 50.0508 24.8183 48.834 24.8183H47.3848ZM54.1797 30H60.8379V28.3046H56.2305V25.8984H60.4824V24.2031H56.2305V21.7968H60.8242V20.1015H54.1797V30ZM67.7969 22.9316H69.7656C69.7383 21.1816 68.2959 19.9648 66.1016 19.9648C63.9346 19.9648 62.3486 21.1611 62.3555 22.9589C62.3555 24.4082 63.3809 25.2421 65.0488 25.6523L66.1289 25.9121C67.209 26.1787 67.8242 26.4931 67.8242 27.1699C67.8242 27.9082 67.127 28.414 66.0469 28.414C64.9531 28.414 64.1602 27.9082 64.0918 26.9101H62.0957C62.1572 29.0361 63.6816 30.1435 66.0742 30.1367C68.4873 30.1435 69.8955 28.9814 69.9023 27.1699C69.8955 25.5224 68.6309 24.6611 66.9355 24.2714L66.0469 24.0527C65.1924 23.8613 64.4541 23.54 64.4609 22.8222C64.4678 22.166 65.0488 21.6875 66.0879 21.6875C67.0928 21.6875 67.7148 22.1455 67.7969 22.9316ZM71.2422 30H77.9004V28.3046H73.293V25.8984H77.5449V24.2031H73.293V21.7968H77.8867V20.1015H71.2422V30ZM79.1035 21.7968H82.1387V30H84.1758V21.7968H87.2109V20.1015H79.1035V21.7968Z" fill="white"/>
<defs>
<clipPath id="clip0_6_1694">
<rect width="16" height="16" fill="white" transform="translate(23.5 16.5)"/>
</clipPath>
</defs>
</svg>
