<svg width="102" height="12" viewBox="0 0 102 12" fill="none" xmlns="http://www.w3.org/2000/svg">
<path d="M5.88281 11.5332C8.91113 11.5332 11.3652 9.0791 11.3516 6.05078C11.3652 3.02246 8.91113 0.568359 5.88281 0.568359C2.84766 0.568359 0.400391 3.02246 0.400391 6.05078C0.400391 9.0791 2.84766 11.5332 5.88281 11.5332ZM1.4668 6.05078C1.4668 3.60352 3.43555 1.62793 5.88281 1.63477C8.32324 1.62793 10.3057 3.60352 10.2988 6.05078C10.3057 8.49805 8.32324 10.4668 5.88281 10.4531C3.43555 10.4668 1.4668 8.49805 1.4668 6.05078ZM3.75 6.05078C3.74316 7.61621 4.67969 8.53223 5.96484 8.53906C7.16797 8.53223 7.91992 7.75293 8.0293 6.84375L7.07227 6.83008C6.96973 7.37695 6.5459 7.68457 5.99219 7.67773C5.2334 7.68457 4.7002 7.12402 4.70703 6.05078C4.7002 5.00488 5.21973 4.42383 5.99219 4.42383C6.56641 4.42383 6.99023 4.74512 7.07227 5.29883H8.0293C7.89941 4.20508 7.07227 3.57617 5.96484 3.57617C4.7002 3.57617 3.74316 4.48535 3.75 6.05078ZM18.7207 11H19.9922L22.166 3.16602H22.248L24.4082 11H25.6797L28.3867 1.10156H27.1426L25.0781 9.11328H24.9961L22.8906 1.10156H21.5098L19.418 9.11328H19.3223L17.2578 1.10156H16.0137L18.7207 11ZM29.6992 11H35.7695V9.90625H30.9297V6.58398H35.3867V5.50391H30.9297V2.19531H35.7012V1.10156H29.6992V11ZM45.5039 1.10156H44.2871V8.82617H44.1914L38.832 1.10156H37.6426V11H38.873V3.28906H38.9688L44.3281 11H45.5039V1.10156ZM48.9219 1.10156H47.6914V11H48.9219V1.10156ZM51.5605 1.10156H50.2617L53.8848 11H55.1836L58.8066 1.10156H57.5078L54.582 9.40039H54.4727L51.5605 1.10156ZM70.4141 4.21875H71.6445C71.2754 2.16113 69.6553 0.964844 67.6523 0.964844C65.1094 0.964844 63.2705 2.91992 63.2773 6.05078C63.2705 9.18164 65.1094 11.1367 67.6523 11.1367C69.6621 11.1367 71.2891 9.91992 71.6445 7.89648H70.4141C70.1201 9.25 68.958 9.98145 67.6523 9.98828C65.8613 9.98145 64.4736 8.60059 64.4668 6.05078C64.4736 3.49414 65.8613 2.11328 67.6523 2.11328C68.958 2.11328 70.127 2.85156 70.4141 4.21875ZM81.7344 6.05078C81.7412 2.91992 79.8955 0.964844 77.3594 0.964844C74.8164 0.964844 72.9775 2.91992 72.9844 6.05078C72.9775 9.18164 74.8164 11.1367 77.3594 11.1367C79.8955 11.1367 81.7412 9.18164 81.7344 6.05078ZM74.1738 6.05078C74.1807 3.49414 75.5684 2.11328 77.3594 2.11328C79.1504 2.11328 80.5381 3.49414 80.5449 6.05078C80.5381 8.60059 79.1504 9.98145 77.3594 9.98828C75.5684 9.98145 74.1807 8.60059 74.1738 6.05078ZM83.5391 11H84.7695V7.1582H86.916C86.998 7.1582 87.0801 7.1582 87.1553 7.15137L89.2266 11H90.6621L88.4336 6.92578C89.6914 6.48828 90.2793 5.46289 90.2793 4.15039C90.2793 2.38672 89.2197 1.10156 86.9023 1.10156H83.5391V11ZM84.7695 6.03711V2.19531H86.8477C88.4404 2.19531 89.0557 2.96777 89.0625 4.15039C89.0557 5.32617 88.4404 6.03711 86.8613 6.03711H84.7695ZM92.0566 11H93.2871V7.4043H95.4336C97.7373 7.4043 98.7969 6.00293 98.7969 4.24609C98.7969 2.48242 97.7373 1.10156 95.4199 1.10156H92.0566V11ZM93.2871 6.31055V2.19531H95.3652C96.958 2.19531 97.5732 3.06348 97.5801 4.24609C97.5732 5.42188 96.958 6.31055 95.3789 6.31055H93.2871ZM100.738 11.082C101.224 11.0752 101.62 10.6787 101.613 10.1934C101.62 9.71484 101.224 9.31836 100.738 9.31836C100.26 9.31836 99.8496 9.71484 99.8633 10.1934C99.8496 10.6787 100.26 11.0752 100.738 11.082Z" fill="#8596BF"/>
</svg>
